<?xml version="1.0" encoding="UTF-8"?>
<svg id="Layer_1" data-name="Layer 1" xmlns="http://www.w3.org/2000/svg" version="1.1" xmlns:xlink="http://www.w3.org/1999/xlink" viewBox="0 0 846.8 595.8">
  <defs>
    <style>
      .cls-1, .cls-2, .cls-3, .cls-4 {
        stroke-width: 0px;
      }

      .cls-1, .cls-5, .cls-6, .cls-4 {
        fill: #f7a93c;
      }

      .cls-7, .cls-8, .cls-9, .cls-10 {
        fill: none;
      }

      .cls-7, .cls-8, .cls-9, .cls-10, .cls-5, .cls-11, .cls-12, .cls-13, .cls-6, .cls-14, .cls-15 {
        stroke-miterlimit: 10;
      }

      .cls-7, .cls-12, .cls-14 {
        stroke: #231f20;
      }

      .cls-2 {
        fill: #000;
      }

      .cls-16 {
        font-size: 40px;
      }

      .cls-16, .cls-17, .cls-18 {
        font-family: Algerian, Algerian;
      }

      .cls-8, .cls-9, .cls-19, .cls-20, .cls-10, .cls-21, .cls-22 {
        font-family: MyriadPro-Regular, 'Myriad Pro';
      }

      .cls-8, .cls-9, .cls-10, .cls-5, .cls-6, .cls-15 {
        stroke: #183745;
      }

      .cls-8, .cls-22 {
        font-size: 12.1px;
      }

      .cls-9, .cls-20 {
        font-size: 13.7px;
      }

      .cls-19, .cls-17, .cls-18 {
        font-size: 21px;
      }

      .cls-23 {
        text-decoration: underline;
      }

      .cls-24 {
        font-size: 22.1px;
      }

      .cls-24, .cls-12, .cls-13, .cls-25 {
        fill: #fff;
      }

      .cls-24, .cls-25 {
        font-family: TimesNewRomanPS-BoldMT, 'Times New Roman';
        font-weight: 700;
      }

      .cls-20, .cls-21, .cls-22, .cls-15 {
        fill: #183745;
      }

      .cls-26, .cls-27, .cls-28, .cls-29, .cls-11, .cls-18 {
        fill: #193745;
      }

      .cls-26, .cls-28, .cls-30, .cls-31 {
        font-family: TimesNewRomanPSMT, 'Times New Roman';
      }

      .cls-26, .cls-30 {
        font-size: 15px;
        letter-spacing: 0em;
      }

      .cls-10, .cls-21 {
        font-size: 12.1px;
      }

      .cls-32, .cls-17 {
        fill: #21409a;
      }

      .cls-28 {
        font-size: 34px;
        letter-spacing: 0em;
      }

      .cls-29, .cls-31, .cls-11 {
        font-size: 20px;
      }

      .cls-29, .cls-11 {
        font-family: BaskOldFace, 'Baskerville Old Face';
      }

      .cls-30, .cls-14 {
        fill: #231f20;
      }

      .cls-31 {
        fill: #082839;
      }

      .cls-5, .cls-13 {
        stroke-width: 2px;
      }

      .cls-11 {
        letter-spacing: 0em;
        stroke: #193745;
        stroke-width: .2px;
      }

      .cls-13 {
        opacity: .4;
        stroke: #f7941d;
      }

      .cls-6 {
        stroke-width: .8px;
      }

      .cls-3 {
        fill: #1a3745;
      }

      .cls-4 {
        filter: url(#drop-shadow-1);
        opacity: .3;
      }

      .cls-25 {
        font-size: 12.4px;
      }
    </style>
    <filter id="drop-shadow-1" filterUnits="userSpaceOnUse">
      <feOffset dx="7" dy="7"/>
      <feGaussianBlur result="blur" stdDeviation="5"/>
      <feFlood flood-color="#231f20" flood-opacity=".8"/>
      <feComposite in2="blur" operator="in"/>
      <feComposite in="SourceGraphic"/>
    </filter>
  </defs>
  <rect class="cls-12" width="846.8" height="595.8"/>
  <rect class="cls-13" x="24.2" y="24.4" width="785.7" height="545.5"/>
  <g>
    <rect class="cls-3" x="799.9" y="14.4" width="23.4" height="322.4"/>
    <rect class="cls-3" x="656.2" y="-131.3" width="23.4" height="310.7" transform="translate(692 -643.9) rotate(90)"/>
  </g>
  <g>
    <rect class="cls-1" x="687.4" y="-47.6" width="14.8" height="196.1" transform="translate(745.3 -644.3) rotate(90)"/>
    <rect class="cls-1" x="778.1" y="43.1" width="14.8" height="203.5"/>
  </g>
  <g>
    <rect class="cls-3" x="14" y="259.6" width="23.4" height="322.4" transform="translate(51.5 841.5) rotate(180)"/>
    <rect class="cls-3" x="157.7" y="414.9" width="23.4" height="310.7" transform="translate(-400.9 739.6) rotate(-90)"/>
  </g>
  <g>
    <rect class="cls-1" x="137.1" y="444.8" width="14.8" height="196.1" transform="translate(-398.3 687.3) rotate(-90)"/>
    <rect class="cls-1" x="46.5" y="346.7" width="14.8" height="203.5" transform="translate(107.7 896.9) rotate(180)"/>
  </g>
  <g>
    <text class="cls-32" transform="translate(309 182.6) scale(.9 1)"><tspan class="cls-16"><tspan x="0" y="0">CERTIFICATE</tspan></tspan><tspan class="cls-19"><tspan x="0" y="25.2" xml:space="preserve">          </tspan></tspan></text>
    <text class="cls-17" transform="translate(350.5 207.8)"><tspan x="0" y="0">Of Completion</tspan></text>
    <text class="cls-27" transform="translate(309 182.6) scale(.9 1)"><tspan class="cls-16"><tspan x="0" y="0">CERTIFICATE</tspan></tspan><tspan class="cls-19"><tspan x="0" y="25.2" xml:space="preserve">          </tspan></tspan></text>
    <text class="cls-18" transform="translate(350.5 207.8)"><tspan x="0" y="0">Of Completion</tspan></text>
  </g>
  <text class="cls-28" transform="translate(109.3 90.2) scale(.9 1)"><tspan x="0" y="0">WEBISTE BANAYE &amp; COMPUTER SIKHE </tspan></text>
  <text class="cls-29" transform="translate(351.7 237.9) scale(1 1)"><tspan x="0" y="0">This is Certifiy that</tspan></text>
  <text class="cls-26" transform="translate(163.9 109.3) scale(1.1 1.1)"><tspan x="0" y="0">This institute is initiative by Evolve Enterprises &amp; Digital Ludhiana</tspan></text>
  <text class="cls-30" transform="translate(247.3 126.3) scale(1.1 1)"><tspan x="0" y="0">Mob. +91-9814143394, www.websitebanaye.com</tspan></text>
  <text class="cls-31" transform="translate(101.4 331.4) scale(1 1.1)"><tspan x="0" y="0">Son/daughter of </tspan><tspan class="cls-23" x="133.3" y="0" xml:space="preserve">                                         </tspan><tspan x="338.3" y="0">has successfully completed the following</tspan><tspan x="0" y="28.3">course of </tspan><tspan class="cls-23" x="78.9" y="28.3" xml:space="preserve">                                          </tspan><tspan x="288.9" y="28.3" xml:space="preserve"> during the period of </tspan><tspan class="cls-23" x="458.3" y="28.3" xml:space="preserve">                                </tspan><tspan x="618.3" y="28.3" xml:space="preserve"> to</tspan><tspan class="cls-23" x="0" y="56.6" xml:space="preserve">                               </tspan><tspan x="155" y="56.6" xml:space="preserve"> and Obtained Grade </tspan><tspan class="cls-23" x="326" y="56.6" xml:space="preserve">          </tspan><tspan x="376" y="56.6" xml:space="preserve"> We wish him/her success in life.</tspan></text>
  <text/>
  <text class="cls-11" transform="translate(128.7 496.2) rotate(-1) scale(.9 1)"><tspan x="0" y="0">C</tspan><tspan x="14.1" y=".2">e</tspan><tspan x="23.9" y=".3">r</tspan><tspan x="31.6" y=".4">t</tspan><tspan x="37.6" y=".5">i</tspan><tspan x="43.2" y=".6">f</tspan><tspan x="49.5" y=".7">i</tspan><tspan x="55.1" y=".8">c</tspan><tspan x="64.2" y="1">a</tspan><tspan x="73.5" y="1.1">t</tspan><tspan x="79.5" y="1.2">e</tspan><tspan x="89.2" y="1.4"> </tspan><tspan x="95" y="1.5">N</tspan><tspan x="110.9" y="1.7">o</tspan><tspan x="122" y="1.9">.</tspan></text>
  <text class="cls-29" transform="translate(597.6 495.9)"><tspan x="0" y="0">Authorised Signature</tspan></text>
  <text class="cls-29" transform="translate(594.8 524.6)"><tspan x="0" y="0" xml:space="preserve">Date :                            </tspan></text>
  <text/>
  <text/>
  <g>
    <polygon class="cls-1" points="497.4 475.6 485.6 482.3 495.1 492 481.9 495.2 488.4 507.2 474.8 506.8 478.1 520 465 516.3 465.1 529.9 453.2 523.3 450.3 536.6 440.1 527.6 434.4 540 426.3 529 418.2 540 412.5 527.6 402.3 536.6 399.4 523.3 387.5 529.9 387.6 516.3 374.5 520 377.8 506.8 364.2 507.2 370.7 495.2 357.5 492 367 482.3 355.2 475.6 367 468.9 357.5 459.2 370.7 456 364.2 444 377.8 444.4 374.5 431.2 387.6 434.9 387.5 421.3 399.4 427.9 402.3 414.6 412.5 423.6 418.2 411.2 426.3 422.2 434.4 411.2 440.1 423.6 450.3 414.6 453.2 427.9 465.1 421.3 465 434.9 478.1 431.2 474.8 444.4 488.4 444 481.9 456 495.1 459.2 485.6 468.9 497.4 475.6"/>
    <ellipse class="cls-4" cx="427.8" cy="475.6" rx="49.1" ry="45"/>
  </g>
  <line class="cls-7" x1="597.5" y1="478.1" x2="779.4" y2="478.1"/>
  <line class="cls-7" x1="643.4" y1="523.6" x2="783.8" y2="523.6"/>
  <line class="cls-7" x1="93.3" y1="478.7" x2="275.2" y2="478.7"/>
  <text/>
  <text/>
  <g>
    <path class="cls-2" d="M715,449.3s0,.1-.1.1c-.6,0-1.2.2-1.7.2-.6,0-1.2.2-1.7.2-.9.1-1.8.2-2.6.4-.4,0-.8,0-1.2,0,0,0-.1,0-.2.1-.2-.2-.3-.4-.4-.6-.4,0-.8,0-1.3.1,0,0-.1.2-.2.3.2,0,.4,0,.7.1,0,0,0,0,0,0-.4.1-.8.2-1.1.3-.7.2-1.4,0-2.1.3-.4.1-.9,0-1.3.2-.8.1-1.7.3-2.5.4-.6,0-1.1,0-1.7.1-.7,0-1.4.2-2.1.4-.5,0-.9.2-1.4.3-.3,0-.5,0-.8.1-.5,0-.9.1-1.4.2,0,0-.2.1-.2.2-.2.7.1,1.3.4,2,.2.4.3.7.4,1.1.2.7.4,1.3.7,2,.1.4.2.9.4,1.3.1.5.3,1,.4,1.4,0,.3,0,.6,0,.9,0,.2,0,.5.4.6.1,0,.2.2.2.3,0,.4,0,.7,0,1.1,0,.7-.5,1.2-1.3,1.5,0,0-.1,0-.2.1-.1,0-.3.2-.5.2-.7,0-1.3-.1-2,0-.4,0-.8.1-1.2,0-.7-.3-1.5-.2-2.2-.3-.1,0-.3,0-.4,0-.5-.3-1.1-.3-1.6-.4-.1,0-.2,0-.4,0-.3-.1-.6-.3-1.1-.3-.1,0-.3,0-.5-.2-.3-.2-.6-.4-1.1-.4,0,0-.2,0-.3,0-.5-.4-1.2-.4-1.8-.7-.6-.3-1.1-.7-1.4-1.1-.3-.6-.6-1.2-.8-1.8-.2-.5-.3-1-.5-1.6,0-.1,0-.3.1-.4,0-.2,0-.3,0-.5,0-.4.2-.7,0-1.1,0-.1,0-.3.1-.5-.2-.2-.6-.1-1-.1-.4,0-.8.1-1.2.2-.2,0-.3,0-.5.1,0,0,0,0-.1,0-.6-.1-1,.3-1.5.2-.1.1-.2.2-.3.3,0,0-.2-.2-.2-.3,0-.1,0-.2,0-.3-.3-.5-.2-.8.4-1,.8-.2,1.7-.4,2.6-.6.3,0,.6-.2.9-.3.2,0,.4,0,.6-.1,0-.3.4-.3.6-.3.7-.1,1.1-.5,1.4-.9.8-.9,1.2-2,2.1-2.8.5-.5,1-1,1.3-1.5.3-.4.7-.7,1.1-1,.3-.3.5-.6.8-.9.3-.3.7-.6,1-.8,0,0,.2,0,.4,0,0,0,0,0,0,0,0,0,0,0,0,0-.1-.4,0-.7.4-.9.1,0,.1-.2.3-.5-.2,0-.4,0-.5,0-.3.5-1,.6-1.5.8-.6.2-1.2.4-1.9.5-.3,0-.7,0-1,.1-.8.1-1.6.1-2.4,0-.2,0-.4-.2-.6-.3-.3-.1-.5,0-.5.2,0,.5-.3.9-.6,1.3-.2.3-.5.7-.9.9-.3.1-.3.4-.5.5-.3.1-.6.3-1,.5-.4.2-.7.3-1.1.5-.3.2-.6.3-.9.5,0,0-.1,0-.2,0-.6,0-1.2.2-1.8.2-.6,0-1.1.4-1.6.6,0,0-.1.1-.1.2-.1.3-.2.6-.4.9,0,.1-.1.2-.2.3-.4.3-.7.7-1.1,1-.4.3-.7.6-1.2.8-.3.2-.6.4-.9.6-.6.3-1.1.7-1.8.8-.2,0-.4.2-.6.3-.1,0-.3.2-.4.2-.6,0-1.1.3-1.5.6-.1.1-.4.1-.7.2-.5.2-1,.3-1.4.5-.8.3-1.7.6-2.5.9-.5.2-1.1.3-1.7.3-.5,0-1,.2-1.5.3-.4,0-.8.1-1.3.2-.3,0-.6,0-.9.2-.3.2-.8.1-1.1.3-.6.2-1.3,0-1.9.3-.7.2-1.5.3-2.3.3,0,0-.2,0-.2,0-.3,0-.6.2-.9.2-.6,0-1.2.1-1.9.2-.1,0-.2,0-.3,0-.4,0-.7.3-1.1,0,0,0,0,0,0,0-.7.3-1.4,0-2.1.2-.5.1-1,.1-1.5.2-.2,0-.4,0-.6-.1,0,0-.2,0-.3,0-1,.3-2,.2-3,.3-.7,0-1.4,0-2.1,0-.5,0-1.1,0-1.7,0-.6,0-1.3,0-1.8-.2-1.5,0-3-.3-4.4-.7-.9-.2-1.5-.8-2-1.4-.4-.4-.8-.9-1.1-1.3-.1-.2-.2-.4-.3-.6,0-.2-.1-.5-.2-.7,0-.7-.2-1.3-.3-2,0,0,0,0,0,0,.6-.6.4-1.3.7-1.9.2-.5.4-1,.6-1.4.2-.5.6-.9.8-1.3,0-.1,0-.3,0-.4,0-.3,0-.5.3-.8,0,0,0,0,.1-.1.3-.4.5-.8.9-1.1.4-.3.6-.8.8-1.2.2-.3.5-.6.8-.9.4-.4.7-.9,1-1.3.5-.6,1-1.2,1.6-1.8,0,0,.1-.1.2-.2.2-.5.6-.8,1-1.1.2-.3.4-.6.7-.9.5-.5,1-.9,1.5-1.4.2-.2.4-.5.6-.8,0,0,0-.1.1-.2.3-.3.7-.6,1.1-.9.3-.3.2-.6,0-.8,0-.3-.2-.6,0-.9.2-.7.8-1.2,1.5-1.6.2-.1.3-.3.6-.4.6-.3,1.1-.7,1.8-.9.4-.1.6-.4,1-.6.2,0,.4-.2.6-.2.2-.2.5-.4.7-.6.3-.3.7-.6,1.1-.8.4-.3.8-.6,1.3-.9,0,0,0,0,.1,0,.1-.5.7-.6,1.1-.9.6-.6,1.3-1.1,2-1.6.1-.1.2-.2.4-.3.4-.4.8-.7,1.3-1.1,0,0,0,0,0,0,0-.4.5-.5.8-.8.2-.2.4-.4.6-.6.4-.4.8-.9,1.1-1.3.4-.5,1-1,1.2-1.6,0-.2.2-.3.3-.5.2-.4.3-.7.4-1.1.1-.3.4-.6.9-.5.3,0,.5.2.8.3-.4.5-.3,1.1-.2,1.6,0,.3.1.5,0,.8,0,.1.1.3.2.5,0,.4.5.8.3,1.3,0,.2,0,.4,0,.6,0,.3.1.6.2.8,0,0,0,0,0,0,.5.5.4,1.2.6,1.8,0,.3.2.6.4.9,0,.1.4.2.6.1.6-.1,1.1,0,1.6.1.4.2.9.2,1.3.4.3.1.6.4.7.6.3.6.7,1.2.3,1.8-.1.2-.2.5-.2.7,0,.3-.2.4-.5.5-.3,0-.5.2-.6.5,0,.1-.3.2-.5.4.2.3.1.4-.3.6-.3.1-.4.4-.6.6,0,0,0,.2,0,.3.1,0,.3,0,.5,0-.1,0-.2.1-.2.2,0,0-.2.1-.1.2.3.3,0,.6,0,1,0,.3,0,.7.4,1,.1,0,.1.3,0,.5-.1.5.4.9.5,1.4,0,.6.3,1.1.5,1.7.1.4.3.8.4,1.2,0,.2,0,.3,0,.5,0,.3.2.6.6.7.6.2,1.1.3,1.7.5.5.2,1,.4,1.5.4.3,0,.6.2.9.3.8.4,1.6.8,2.4,1.2.6.3,1.2.7,1.8,1.1.2,0,.3.1.5.2.5.3.9.7,1.2,1.2.2.3.5.6.8.9.3.4.5.8.5,1.3,0,.2,0,.4,0,.6.6,0,1.2,0,1.7-.2.6-.1,1.1-.4,1.6-.6.2,0,.3-.2.5-.2.6,0,1-.4,1.4-.7.2-.1.5-.2.7-.4.2-.2.5-.3.7-.6.1-.2,0-.4,0-.7,0,0-.2,0-.3,0-.3.2-.6.5-.9.7-.5.3-.9.6-1.5.7-.2,0-.4.1-.6.2-.7.3-1.7.2-2.4-.2-1.2-.7-1.7-1.7-1.9-2.8,0-.6-.2-1.1-.2-1.7,0-.7,0-1.4.3-2.2,0,0,0,0,0,0,.5-.3.4-.7.6-1.1.1-.3.4-.4.7-.6.3-.2.5-.5.9-.6.3-.1.5-.4.7-.5.4-.2.9-.2,1.3,0,.6.2,1.2.4,1.7.7.5.4,1.2.3,1.8.6.4.2.6.4.7.7.1.6.2,1.2.6,1.7.2.2.1.6.2.9,0,.6.3,1.2,1,1.6.8.4,1.6.4,2.5.5.7,0,1.3-.2,1.9-.3.4-.1.9-.2,1.3-.2.4,0,.5-.2.5-.5,0-.3-.3-.3-.6-.3-.4,0-.7,0-1.1,0-.2,0-.4,0-.5-.1-.2,0-.4-.1-.7-.2-.6-.2-.9-.6-1.2-.9-.7-.8-.3-1.6,0-2.4,0-.2.2-.5.2-.7,0-.2.2-.4.5-.5.3,0,.7-.2.8-.3.3-.5.9-.5,1.3-.7.3-.2.7-.2,1,0,.5.3,1.1.6,1.3,1.1.1.2.4.4.6.6,0,0,.3,0,.4-.1.2,0,.5,0,.8,0,0,0,.2.1.2.2,0,.5.1,1,0,1.5-.1.5,0,1,0,1.6,0,.1,0,.2,0,.4,0,.2,0,.4.4.5.1-.3.5-.5.9-.5,0-.5.5-.8.9-1.1.4-.3.9-.5,1.2-.8.2-.2.1-.5,0-.8-.1-.3-.4-.6-.6-.9,0,0,0,0,0-.1,0-.4,0-.8,0-1.2,0-.4.2-.8.3-1.2,0-.3.3-.7.5-.9.3-.4.6-.7,1.2-1,.7-.4,1.5-.4,2.2-.7.2,0,.5,0,.7,0,.6,0,1.1,0,1.6-.2.1,0,.3,0,.5,0,.3,0,.5,0,.8,0,.1,0,.3,0,.4.1.1,0,.3.2.4.3,0,0,.2.1.2.2.1.5.4,1,.1,1.6-.2.5-.1.9.4,1.2,0,0,.1.1.2.2,0,.3.1.5.2.8,0,0,0,.1,0,.1.4.3.3.7.3,1,0,0,0,.1,0,.1.5.5.3,1.1.7,1.6.2.2.3.4.4.6.1.2.3.3.6.3.7-.1,1.4-.3,2.1-.4,0,0,0,0,0,0,.9,0,1.4-.4,2-.8.5-.4.9-.8,1.3-1.2.2-.2.3-.4.4-.7,0-.2.2-.4.3-.6.3-.3.2-.6.1-.8,0-.1-.3-.2-.4-.3-.4,0-.9-.2-1.3-.2-.6,0-1.5-.6-1.6-1-.1-.3-.1-.6-.4-.9-.1-.1,0-.5,0-.7,0-.4.1-.8.2-1.2,0-.3.3-.7.7-.8.3,0,.7,0,.9.2.3.3.6.7,1.2.7.5.5,1.2.7,1.4,1.4,0,.3.3.6.5.9.2.3.7.2,1,.1.7-.2,1.5-.3,2.1-.7.2-.1.6-.2.9-.3.6-.1,1.3-.3,1.9-.4.4,0,.8.2.9.5.2.6.3,1.3.4,1.9.1.4.3.9.3,1.3,0,.6,0,1.3,0,1.9,0,.7-.3,1.4-.6,2-.1.3-.4.5-.6.7-.1.1-.2.3-.2.5,0,.3-.2.4-.4.6-.3.3-.6.5-.9.8-.1,0-.3,0-.5,0,0,0,0,0,0,0,0,0,.1,0,.2.1-.1,0-.2.1-.3.1-.2,0-.4.1-.5.3-.1.1-.4.2-.6.3-.3.2-.6.4-.9.6-.6.3-1.1.5-1.7.8-.6.3-1.2.3-1.7.7-.4.3-1,.4-1.5.6-.7.3-1.4.6-2,.8-.3.1-.6.2-.9.4-.3.1-.5.2-.8.3,0,0,0,0,0,.1.3,0,.5,0,.8,0,.9,0,1.8-.2,2.8-.3.9-.1,1.9-.2,2.8-.3,0,0,.2,0,.2,0,.6,0,1.1-.1,1.6-.4,0,0,.1,0,.2,0,.7,0,1.4,0,2.1-.2.4-.1.8-.2,1.2-.2.3,0,.5,0,.8,0,.9-.2,1.8-.2,2.6-.3.1,0,.3,0,.4,0,1.2-.4,2.5-.2,3.6-.5,0,0,.2,0,.3,0,.4,0,.8,0,1.2,0,.5-.1,1.1-.2,1.7,0,0,0,0-.1,0-.2.5,0,1-.2,1.5-.2.8,0,1.4-.2,2.1-.3.5,0,1-.2,1.5-.2,1.2-.1,2.5-.3,3.7-.4.7,0,1.4-.2,2.1-.3.3,0,.6,0,.9,0,.5,0,1-.1,1.6-.2.7,0,1.5-.1,2.2-.2.4,0,.9-.2,1.3-.3.7-.1,1.5-.2,2.2-.3.5,0,1,0,1.5-.1.7-.2,1.5,0,2.2-.2.4,0,.9,0,1.3,0,0,0,0,0,.1,0,.6-.3,1.2-.2,1.8-.3.6,0,1.3-.2,1.9-.3.7,0,1.4-.1,2.1-.2.3,0,.5-.1.8-.1.2,0,.5,0,.7,0,1.1-.1,2.2-.3,3.3-.4.7,0,1.3-.1,2-.2.5,0,.9-.1,1.4-.2.5,0,1.1-.1,1.6-.2.2,0,.4-.1.6-.2.8-.2,1.6-.2,2.4-.2.5,0,1.1-.2,1.6-.3.8-.1,1.6-.2,2.4-.3.2,0,.3,0,.6.1,0,0,.3-.2.4-.3,0,0,0,0,0,0,.2,0,.4-.2.7-.2.3,0,.5,0,.8,0v1.1c-.2,0-.4,0-.5,0-.1-.2-.2-.3-.4-.4,0,0-.2,0-.3.1.1.1.2.2.4.3-.4,0-.7.2-1,0-.1-.1-.4-.1-.6-.1-.2,0-.4,0-.7.2,0,0,0-.2-.2-.3,0,0-.3-.1-.4-.1-.1,0-.2.2,0,.2,0,0,0,.2-.2.3-.1,0-.3,0-.4,0,0,0-.2-.1-.3-.2,0,0,0,.2-.1.2-.3,0-.5-.2-.8-.2,0,0,0,0,0,0,0,0,.1.2.2.3-.7-.2-1.1.2-1.7.3.2.5.6,0,.9.2-.4.2-1.8.3-2.1,0,.1,0,.3,0,.4,0,0,0,0,0,0,0-.2,0-.3,0-.5-.2,0,0,.1-.1.2-.2-.2-.2-.4-.2-.7,0-.1,0-.3,0-.5.1,0,0,.1,0,.2.1-.4.3-1,.3-1.4.1-.3.3-.2.4.7.5,0,0,0,0,0,0-1,0-2,.2-3,.3,0-.3.2-.3.4-.3.2,0,.4,0,.6,0,0,0,0,0,0-.1-.1,0-.2,0-.4-.1,0,0-.2,0-.2,0-.8.4-1.7.4-2.5.4-.3,0-.5,0-.5.3,0,.2-.2.2-.5.2.1-.2.2-.4.3-.6-.5,0-.8.2-.6.6-.4,0-.7.2-1,.3,0,0,0,0,0,0,.2-.1.6,0,.5-.3-.3,0-.5,0-.7,0-.3,0-.3.1-.3.3,0,.2,0,.2-.3.2,0-.2,0-.3,0-.5-.8,0-1.6.1-2.4.2,0,0,0,0,0,0-.2.3-.6.1-.9.2-.3,0-.5,0-.8.1,0,0,0,0,0,0-.5-.2-.9,0-1.4,0-.2,0-.4,0-.6,0-.2,0-.3,0-.5,0-.1.2-.4.2-.7.2-.3,0-.7,0-1,0-.4,0-.8,0-1.2.1-.1,0-.3,0-.4,0-.6.1-1.1.3-1.7.4-.8.1-1.5.1-2.3.2-.5,0-1,0-1.5.2-.1,0-.3,0-.5,0,0,0,0,.2,0,.2h1.2s0,0,0,.1c-.5,0-.9.1-1.4.2-1.1.1-2.1.3-3.2.4-.6,0-1.1,0-1.7.1-.2,0-.5,0-.7.1,0-.3.3-.3.6-.3.2,0,.4,0,.7,0,.4,0,.7-.2,1.1-.2.4,0,.8-.1,1.2-.2,0,0,0-.1,0-.2-.9.3-1.8,0-2.7.3,0,0,0,0,0-.1-1.8.2-3.6.5-5.4.7v.3c.1,0,.2,0,.4,0,.5,0,1-.2,1.5-.1.2,0,.3,0,.5,0,0,0,.2,0,.2,0,.4,0,.8,0,1.2-.2.3,0,.6,0,.8.2-.6,0-1.2.1-1.9.2-.4,0-.9.2-1.3.2-.7,0-1.3.2-2,.2-.4,0-.7.1-1.1.2-.3,0-.6.2-.6-.2,0,0-.3-.2-.4-.1-.6,0-1.2.2-1.8.2-.6,0-1.2.2-1.9,0-.2,0-.5,0-.8,0-.8.1-1.6.3-2.5.4,0,0-.1,0-.3,0,.3.2.5.3.8.1.3-.2.6,0,.9,0,.5,0,1,0,1.5,0,0,0,0,0,0,.1-.1,0-.3,0-.4,0-.7,0-1.5.2-2.2.2-.3,0-.6-.1-.8-.2,0,0,0-.1,0-.3-.5,0-1,.1-1.5.2-.7,0-1.3.1-2,.2-.5,0-1.1.2-1.6.2-.3,0-.5,0-.8,0-.2,0-.5.1-.7.2-.9.1-1.7.2-2.6.3-.7,0-1.5.2-2.2.4,0,0,0,0-.1,0-.6,0-1.2,0-1.7.4.5,0,.9.2,1.4,0,.1,0,.4-.1.5-.1.3,0,.6,0,1-.1.5-.1,1-.1,1.5-.2.8,0,1.5,0,2.2-.3.2,0,.5,0,.7,0,0,0,0,0,0,0ZM634.3,460c.8,0,1.4-.1,2.1-.1.5,0,1.1,0,1.6,0,0,0,.2,0,.3,0,.4,0,.8-.2,1.2-.2.5,0,1,0,1.5,0,1.1,0,2.1-.5,3.3-.4,0,0,0,0,.1,0,.7-.1,1.4-.4,2.2-.4.7,0,1.3-.4,2.1-.3.3-.3.7-.1,1-.2.6-.1,1.3-.2,1.9-.4,1-.2,2.1-.4,3.1-.7.7-.2,1.4-.4,2.1-.6.4-.1.9-.1,1.3-.4.4-.3,1-.5,1.7-.5.2,0,.3,0,.5-.1.3,0,.5-.2.8-.3.1,0,.2,0,.3-.1.2-.2.5-.3.8-.4.4-.1.8-.3,1.2-.5,0,0,.2,0,.3-.2.3-.2.6-.5.9-.6.8-.3,1.3-.8,1.9-1.2.3-.2.5-.5.8-.7.3-.2.3-.4.3-.7-.6,0-1.2,0-1.8,0-.3,0-.6,0-.9,0-.4.2-.8,0-1.3,0-.4,0-.7-.2-1.1-.2-.4,0-.8,0-1.1-.2-.4-.2-.8-.5-1.3-.8-.4-.2-.6-.4-.9-.7-.2-.3-.6-.4-.5-.8,0,0,0-.1,0-.2-.6-.3-.6-.8-.9-1.2-.5-.7-.7-1.5-1-2.3-.1-.3-.2-.5-.3-.8,0-.4,0-.8-.1-1.2,0-.3-.2-.4-.5-.5-.9-.2-1.9-.4-2.8-.7-.7-.2-1.3-.4-1.9-.6-.4-.1-.9-.2-1.3-.2-.7,0-1.4,0-2-.2-.3,0-.6-.2-.8-.2-.6,0-1.1-.1-1.6-.2-.9-.1-1.7-.2-2.6-.3-.2,0-.3,0-.5,0-.5,0-.9-.2-1.4-.3-.7-.1-1.5-.1-2.2-.3-.8-.2-1.5-.4-2.3-.6,0-.1,0-.2.1-.2-.5,0-.8-.1-1.1-.4-.3-.3-.7-.5-1-.6-.2,0-.3-.1-.5-.2,0,0-.1,0-.2.1-.4.4-.7.8-1.1,1.2-.1.2-.3.4-.3.6,0,.3-.2.4-.5.5,0,0-.2.1-.2.2-.1.1-.2.3-.4.5-.4.3-.7.6-.7,1-.2.1-.4.2-.5.3,0,0,.2.2.3.4,0,0,.2.2.3.2-.5.3-1.5,0-1.3.8-.2.1-.5.3-.5.4,0,.5-.3.8-.7,1.1-.2.1-.2.5-.6.5,0,.4-.5.7-.2,1.1-.2,0-.4.1-.6.2,0,.2,0,.4-.1.5-.5.4-.8.8-1.2,1.3-.4.5-.8,1-1,1.6,0,0-.2.2-.4.3.2.3-.6.5-.2.9,0,0,0,0-.1,0-.2.5-.4,1-.6,1.4,0,0,0,0,.1,0,.1,0,.3.2.4.3.2.3,0,1-.2,1.2-.1.1-.3.2-.4.4-.1.2-.1.3.1.4,0,.2,0,.4,0,.5,0,.3,0,.6-.5.7-.2,0-.2.3,0,.4.3.1.4.2.3.5-.1.3,0,.5-.1.8,0,0,0,.2,0,.2.2.2.4.5.7.7.2.2.5.5.8.7.6.4,1.4.3,2,.6.3.1.6.2.9.3.7,0,1.4.1,2.1.2.5,0,1.1.2,1.6.3,0,0,0,0,0,0q.5.3.8.2c0,0-.2-.1-.3-.2,0,0,0,0,0,0,.9.2,1.9-.2,2.6.1ZM715.5,435.5c-.3,0-.5.2-.8.2-.4,0-.9,0-1.3.3-.4.2-.9.3-1.3.5-.3,0-.5.2-.8.3-.3.1-.6.3-.9.4,0,0,0,.1,0,.2,0,.6-.2,1.2-.7,1.8-.1.1-.2.3-.3.5-.2.2,0,.4-.3.7-.5.6-1,1.1-1.8,1.4-.5.2-1,.4-1.4.7-.3.2-.7.3-1.1.4-.4,0-.8,0-1,.3,0,0-.2,0-.3,0-.4,0-.8,0-1.2,0-.7.1-1.1-.3-1.6-.5-.4-.2-.3-.5-.5-.7-.2-.3-.3-.6-.4-.9,0-.2-.2-.4-.3-.6,0,0,0,0-.1,0-.1.1-.3.3-.4.4-.2.2-.3.3-.6.4-.2,0-.4.2-.6.3-.2.1-.6.4-.7.3-.3-.1-.6,0-.9,0-.9,0-1.9,0-2.7-.4-.2,0-.4-.1-.7-.2-.2.4-.4.7-.6,1-.4,0-.9.3-1.1.5-.3.4-.6.7-.9,1.1-.2.2-.6.3-.6.5,0,.5,0,1,0,1.5,0,.6.4,1.2.5,1.8,0,.2.1.4.2.5.1.3.2.6.4,1,.2.7,0,1.4.5,2,.2.3.4.3.7.3.3,0,.6-.2.8-.2.7,0,1.3-.2,1.9-.4.4-.1.8-.2,1.1-.3.9-.2,1.7-.4,2.6-.6.2,0,.4-.2.6-.2.6-.2,1.2-.2,1.7-.5.2-.1.5-.2.7-.2.3,0,.8,0,1-.2.5-.3,1.1-.4,1.7-.6.4-.2.8-.3,1.2-.4.6-.2,1.3-.5,1.9-.7.1,0,.3,0,.4,0,.4-.2.9-.4,1.3-.6.5-.3,1.1-.5,1.6-.8.2-.1.5-.2.8-.3,0,0,.2,0,.2,0,.4-.2.8-.4,1.2-.6.4-.2.9-.4,1.2-.7.4-.4.8-.7,1.1-1.1.4-.6.7-1.1.9-1.7.4-.9.3-1.7.2-2.6,0-.2,0-.4,0-.5,0-.7-.1-1.3-.2-2,0-.1,0-.2,0-.3ZM655.7,440.9c0-.2.1-.3.1-.5,0-.3,0-.7-.1-1,0,0,0-.2,0-.2-.3-.1-.2-.4-.2-.6,0-.2,0-.4,0-.6-.2-.7-.4-1.5-.6-2.2,0-.4-.2-.7-.3-1.1,0-.3-.2-.6-.2-.9,0-.3,0-.6-.2-.9,0-.3-.2-.6-.2-.9-.1-.5-.2-.9-.3-1.4-.1-.4-.3-.8-.4-1.2-.2-.6-.5-.8-1.3-.6-.5.1-1.1-.2-1.5.1-.3-.1-.4.2-.7.2-.3,0-.7.1-1,.2-.7.2-1.5.3-2.2.5,0,0-.1,0-.2,0-.3.1-.7.3-1,.4-.9.2-1.8.5-2.6.9-.2,0-.4.2-.7.2-.6.2-1.3.1-1.9.5-.3.2-.7.3-.9.5-.6.5-1.1,1-1.8,1.4-.4.3-.4.8-.9.9-.2,0-.2.3-.4.5-.4.4-.4.9,0,1.2.3.3.5.5,1,.6.6.1,1.2.4,1.7.5.4.1.9.2,1.3.3.8.2,1.6.4,2.4.5.6,0,1.2.2,1.8.4.6.1,1.1.2,1.7.3.5,0,1,0,1.4,0,.9,0,1.6.5,2.6.4,0,0,0,0,0,0,.7.1,1.3.2,2,.4.6.2,1.3.1,1.9.4.6.2,1.3.3,2,.5ZM679.7,461c.6-.2.6-.1.9,0,.2.2.5.4.7.6.1,0,.3.1.4.2,0,0,.1.2.2.2.5.2,1,.3,1.4.4.6.2,1.3.4,1.9.5.7.1,1.5.4,2.3.1,0,0,.1,0,.2,0,.4.1.7.2,1.1.3.1,0,.3,0,.4,0,.6-.2.9.2,1.3.3.2,0,.3.2.5.2.6,0,1.1,0,1.8,0-.1-.5-.2-.9-.3-1.3-.2-.7-.4-1.4-.6-2.1,0-.2-.1-.4-.2-.6-.1-.5-.3-1-.4-1.5-.1-.4-.4-.8-.5-1.2-.3-.7-.5-1.5-.8-2.2-.2-.4-.4-.9-.6-1.3,0-.2-.2-.2-.4-.2-.6,0-1.2.1-1.9.2,0,0-.2,0-.2,0-.3.2-.6.1-.9.1-.2,0-.4,0-.5.2,0,0-.2.1-.3.1-.9.1-1.8.3-2.7.4-.3,0-.6,0-.9.2-.2,0-.5.3-.6.4-.2.5-.2,1-.7,1.4,0,0,0,0,0,.1-.2.4-.4.8-.6,1.2-.2.4-.2.9,0,1.3.3.4.3.8.4,1.2-.2,0-.5,0-.5.2ZM661.8,444c-.2,0-.3-.1-.5-.2-.3-.1-.6-.2-1-.3-.5-.2-1-.3-1.5-.5-.2,0-.4,0-.4.3.1.4.2.8.3,1.1,0,.1,0,.2.1.3,0,.2.2.4.3.6.3.6.5,1.2.8,1.9,0,0,0,0,0,0,.2.3.5.7.6,1,.2.4.3.7.8,1,.5.2,1,.6,1.5.6,1.1.2,2.3.2,3.4.2.3,0,.7,0,1-.2,0,0,.1,0,.2,0,.6,0,.6,0,.6-.5,0-1.1-.4-2.1-1.6-2.9-.2-.1-.3-.2-.5-.3-.2-.2-.4-.5-.8-.6-.2,0-.4-.2-.6-.4-.3-.2-.6-.4-.9-.5-.3-.2-.7-.2-1-.4-.3-.2-.6-.3-1,0,0-.1,0-.2,0-.3ZM652.4,427c0-.2,0-.2-.1-.3-.2-.5,0-1.1-.4-1.5,0,0,0,0,0,0,.2-.2,0-.4-.1-.6,0-.4-.4-.8-.4-1.2,0-.6-.1-1.2-.4-1.9-.5.5-1.5.7-1.3,1.4-.1,0-.2.1-.2.2,0,.2-.1.4-.3.6-.1.2-.3.4-.5.6,0,0-.1,0-.2.1-.1,0-.4.1-.4.2-.1.2-.1.5-.6.6,0,0,0,.1,0,.2,0,.4-.5.5-.8.8-.4.3-1.2.5-1.1,1.1-.4,0-.5.1-.7.3-.2.3-.4.5-.6.7,0,0,0,.2-.2.2-.5.3-.5.3-.3.7.7,0,1.3-.4,2-.3.4,0,.7-.2,1.1-.3.4-.1.9-.2,1.2-.3.8-.4,1.7-.5,2.6-.7.6-.1,1.2-.2,1.8-.4ZM681.1,452.7c.1.1.2.3.4.3.1,0,.4,0,.5,0,.2-.2.5-.2.7-.1.1,0,.3,0,.4,0,.4-.3,1-.2,1.5-.2.8-.1,1.7-.2,2.5-.3.5,0,.9,0,1.4-.2.2,0,.4-.2.5-.3,0-.3,0-.7,0-1-.2-.5-.5-.9-.5-1.4,0-.5-.2-1-.4-1.5,0,0,0-.1-.1-.2-.3-.3-.3-.6-.2-1,0-.5,0-.5-.6-.7,0,0,0,0,0,.1.1.4-.2.6-.5.8-.3.2-.6.4-.8.8-.1.2-.3.5-.7.6,0,0-.2.2-.2.3-.1.3-.2.6-.4.8-.1.2-.5.2-.7.4-.3.3-.6.6-.4,1-.4,0-.5.4-.9.4,0,0,.1,0,.1,0,0,.3-.5.7.2.9,0,.1,0,.2-.1.3-.3,0-.5-.2-.7-.2-.3.2-.5.3-.7.4ZM670.7,441.3c0,.5,0,1,.1,1.5,0,.5,0,1.1.1,1.6,0,.1.1.3.2.4.2.3.3.6.5.9.1.2.1.5.5.6.4,0,.9.1,1.3-.2.4-.3.7-.6,1.1-.9.2-.2.3-.4.4-.6.5-.5.7-.9.5-1.5,0-.2,0-.5-.2-.7,0-.2-.2-.4-.4-.6,0,0-.2,0-.2,0-.2.2-.5.2-.6.3-.2.2-.4.1-.6,0-.5-.2-.6-.5-.7-.9,0-.3-.3-.4-.6-.3,0,0-.2,0-.3.1,0-.1,0-.2,0-.3,0-.1,0-.2-.1-.3-.1,0-.2.2-.3.3-.2.2-.3.5-.8.6ZM693.1,436.4c-.1.5-.3,1-.3,1.5,0,.5.6,1.1,1.1,1.2.2-.2,0-.7.7-.5.3-.2.5-.3.7-.5.5-.5,1.2-.8,1.7-1.3.3-.3.5-.5.7-.9,0-.2.2-.4.5-.5.4-.1.5-.5.3-.7-.2,0-.4,0-.6,0-.3,0-.7,0-1,0-.4,0-.7,0-1-.2,0,0-.2,0-.4-.2,0,.2-.1.3-.2.5,0,0-.1,0-.2,0-.6,0-.8,0-.9.5,0,.2-.2.3-.4.4,0,0-.2,0-.2.1,0,.3-.4.4-.6.5ZM655,428.3c-.3.4-.3.4,0,.7.1.2,0,.4.1.5.1.4,0,.8.1,1.3,0,.4.3.8.4,1.2,0,.2.4.3.5.2,0,0,.1-.2.2-.3.2-.4.3-.9.5-1.3.2-.3.3-.7.3-1,0-.3,0-.6,0-.9,0-.2,0-.4,0-.7-.7.5-1.5.2-2.2.4ZM694.3,440.6c1.1.2,1.9,0,2.7-.4.2-.1.4-.2.6-.4.3-.3.5-.7.5-1.2,0,0,0-.2.1-.2.4-.2,0-.4,0-.7,0,0-.3-.1-.4-.2h0c-.2.2-.4.3-.5.4,0,0-.2.1-.2.2-.2.2-.5.4-.7.5-.7.3-1.3.7-1.7,1.2-.1.2-.2.4-.3.7ZM685.9,442.1c0-.3-.2-.5-.2-.8,0-.3-.5-.4-.5-.8,0-.2-.6-.5-.9-.5,0-.1,0-.3,0-.4,0-.1-.2-.2-.3-.3-.1,0-.4,0-.5,0-.2.2-.4.4-.5.7-.1.3-.1.7-.2,1,0,0,0,.1,0,.2.1.1.3.2.4.3.2.2.4.3.7.3.6,0,1.2,0,1.9,0ZM708.1,435.6c-.2-.4-.4-.6-.9-.7,0,.4.3.7.9.7Z"/>
    <path class="cls-2" d="M715,449.3c0,0,.2-.1.3-.1.6,0,1.1,0,1.7-.1,0,0,.2,0,.2,0,.6-.2,1.2-.2,1.8-.4.1,0,.4,0,.6,0-.2.2-.5.2-.8.3-.9.1-1.8.3-2.7.4-.3,0-.7,0-1.1,0h0Z"/>
    <path class="cls-2" d="M753.7,444.9c-.4,0-.7.1-1.1.1-.3,0-.7,0-1,.1,0,0-.3,0-.4,0,0,0,0-.2,0-.2.1,0,.2,0,.3,0,.5,0,1-.1,1.5-.1.2,0,.5,0,.7.1,0,0,0,0,0,.1Z"/>
    <path class="cls-2" d="M755,444.7c0-.1,0-.2-.1-.3.2,0,.4,0,.6,0,.4,0,.9,0,1.3-.1.1,0,.3,0,.4,0-.6.5-1.5.2-2.2.4Z"/>
    <path class="cls-2" d="M748,445.5c-.9.1-1.8.2-2.6.4,0,0,0,0,0,0,.4-.2.9-.1,1.3-.2.4-.1.9-.1,1.4-.2,0,0,0,.1,0,.2Z"/>
    <path class="cls-2" d="M725.8,448c.3,0,.5,0,.7-.2.3-.1.5,0,.7.2-.5,0-.9,0-1.4,0,0,0,0-.1,0,0Z"/>
    <path class="cls-2" d="M742.8,446c.4,0,.9-.1,1.3-.2-.2.3-.8.4-1.3.3,0,0,0,0,0,0Z"/>
    <path class="cls-2" d="M728.4,447.6c-.2.4-.3.4-.9.4q0-.1.9-.4Z"/>
  </g>
  <g>
    <ellipse class="cls-5" cx="426.1" cy="475.6" rx="49.8" ry="46.7"/>
    <ellipse class="cls-6" cx="426.1" cy="476.4" rx="37.8" ry="32.4"/>
    <g>
      <text class="cls-20" transform="translate(394.1 454.7) rotate(-41.6) scale(1.1 1)"><tspan x="0" y="0">C</tspan></text>
      <text class="cls-9" transform="translate(394.1 454.7) rotate(-41.6) scale(1.1 1)"><tspan x="0" y="0">C</tspan></text>
      <text class="cls-20" transform="translate(401.4 448.4) rotate(-28.5) scale(1.1 1)"><tspan x="0" y="0">E</tspan></text>
      <text class="cls-9" transform="translate(401.4 448.4) rotate(-28.5) scale(1.1 1)"><tspan x="0" y="0">E</tspan></text>
      <text class="cls-20" transform="translate(408.8 444.5) rotate(-16.9) scale(1.1 1)"><tspan x="0" y="0">R</tspan></text>
      <text class="cls-9" transform="translate(408.8 444.5) rotate(-16.9) scale(1.1 1)"><tspan x="0" y="0">R</tspan></text>
      <text class="cls-20" transform="translate(417.7 441.9) rotate(-5.7) scale(1.1 1)"><tspan x="0" y="0">T</tspan></text>
      <text class="cls-9" transform="translate(417.7 441.9) rotate(-5.7) scale(1.1 1)"><tspan x="0" y="0">T</tspan></text>
      <text class="cls-20" transform="translate(426 441.3) rotate(2.1) scale(1.1 1)"><tspan x="0" y="0">I</tspan></text>
      <text class="cls-9" transform="translate(426 441.3) rotate(2.1) scale(1.1 1)"><tspan x="0" y="0">I</tspan></text>
      <text class="cls-20" transform="translate(430.6 441.4) rotate(10) scale(1.1 1)"><tspan x="0" y="0">F</tspan></text>
      <text class="cls-9" transform="translate(430.6 441.4) rotate(10) scale(1.1 1)"><tspan x="0" y="0">F</tspan></text>
      <text class="cls-20" transform="translate(438.7 443) rotate(18.2) scale(1.1 1)"><tspan x="0" y="0">I</tspan></text>
      <text class="cls-9" transform="translate(438.7 443) rotate(18.2) scale(1.1 1)"><tspan x="0" y="0">I</tspan></text>
      <text class="cls-20" transform="translate(443 444.4) rotate(26.7) scale(1.1 1)"><tspan x="0" y="0">E</tspan></text>
      <text class="cls-9" transform="translate(443 444.4) rotate(26.7) scale(1.1 1)"><tspan x="0" y="0">E</tspan></text>
      <text class="cls-20" transform="translate(450.5 448.1) rotate(40.6) scale(1.1 1)"><tspan x="0" y="0">D</tspan></text>
      <text class="cls-9" transform="translate(450.5 448.1) rotate(40.6) scale(1.1 1)"><tspan x="0" y="0">D</tspan></text>
    </g>
    <ellipse class="cls-3" cx="426.1" cy="476.4" rx="35.1" ry="29.7"/>
    <text class="cls-24" transform="translate(405.3 473.6) scale(1.1 1)"><tspan x="0" y="0">ISO</tspan></text>
    <text class="cls-25" transform="translate(394.6 489.7) scale(1.1 1)"><tspan x="0" y="0">9001:2015</tspan></text>
    <polygon class="cls-14" points="383.3 466.9 384 465.2 382.5 464 384.4 464.1 385.1 462.3 385.6 464.2 387.4 464.3 385.9 465.3 386.3 467.1 384.9 465.9 383.3 466.9"/>
    <polygon class="cls-15" points="383.3 466.9 384 465.2 382.5 464 384.4 464.1 385.1 462.3 385.6 464.2 387.4 464.3 385.9 465.3 386.3 467.1 384.9 465.9 383.3 466.9"/>
    <polygon class="cls-15" points="382.3 480.6 383 478.8 381.5 477.6 383.4 477.7 384.1 476 384.6 477.8 386.4 477.9 384.9 478.9 385.3 480.7 383.9 479.6 382.3 480.6"/>
    <polygon class="cls-15" points="386.8 495.5 387.5 493.7 386.1 492.5 387.9 492.6 388.6 490.9 389.1 492.7 391 492.8 389.4 493.8 389.9 495.6 388.4 494.5 386.8 495.5"/>
    <polygon class="cls-15" points="465.9 466.4 466.6 464.7 465.1 463.5 467 463.6 467.7 461.8 468.2 463.7 470.1 463.8 468.5 464.8 469 466.6 467.5 465.4 465.9 466.4"/>
    <polygon class="cls-15" points="464.7 493 465.3 491.2 463.9 490 465.8 490.1 466.4 488.4 466.9 490.2 468.8 490.3 467.2 491.3 467.7 493.1 466.2 491.9 464.7 493"/>
    <polygon class="cls-15" points="467.2 480.1 467.9 478.3 466.4 477.1 468.3 477.2 469 475.5 469.4 477.3 471.3 477.4 469.7 478.4 470.2 480.2 468.8 479.1 467.2 480.1"/>
    <g>
      <text class="cls-21" transform="translate(390.4 506.5) rotate(37.9) scale(1 1.1)"><tspan x="0" y="0">C</tspan></text>
      <text class="cls-10" transform="translate(390.4 506.5) rotate(37.9) scale(1 1.1)"><tspan x="0" y="0">C</tspan></text>
      <text class="cls-21" transform="translate(399.6 513) rotate(24.3) scale(1 1.1)"><tspan x="0" y="0">O</tspan></text>
      <text class="cls-10" transform="translate(399.6 513) rotate(24.3) scale(1 1.1)"><tspan x="0" y="0">O</tspan></text>
      <text class="cls-22" transform="translate(411.8 517.9) rotate(9.7) scale(1 1.1)"><tspan x="0" y="0">M</tspan></text>
      <text class="cls-8" transform="translate(411.8 517.9) rotate(9.7) scale(1 1.1)"><tspan x="0" y="0">M</tspan></text>
      <text class="cls-21" transform="translate(425.6 519.6) rotate(-2.7) scale(1 1.1)"><tspan x="0" y="0">P</tspan></text>
      <text class="cls-10" transform="translate(425.6 519.6) rotate(-2.7) scale(1 1.1)"><tspan x="0" y="0">P</tspan></text>
      <text class="cls-21" transform="translate(434.1 519.1) rotate(-12) scale(1 1.1)"><tspan x="0" y="0">A</tspan></text>
      <text class="cls-10" transform="translate(434.1 519.1) rotate(-12) scale(1 1.1)"><tspan x="0" y="0">A</tspan></text>
      <text class="cls-21" transform="translate(445.4 516.3) rotate(-24.7) scale(1 1.1)"><tspan x="0" y="0">N</tspan></text>
      <text class="cls-10" transform="translate(445.4 516.3) rotate(-24.7) scale(1 1.1)"><tspan x="0" y="0">N</tspan></text>
      <text class="cls-21" transform="translate(456.3 510.7) rotate(-37.7) scale(1 1.1)"><tspan x="0" y="0">Y</tspan></text>
      <text class="cls-10" transform="translate(456.3 510.7) rotate(-37.7) scale(1 1.1)"><tspan x="0" y="0">Y</tspan></text>
    </g>
  </g>
</svg>