<svg width="70" height="70" viewBox="0 0 70 70" fill="none" xmlns="http://www.w3.org/2000/svg">
<path d="M22.0694 0H13.9028C8.79861 0 4.375 4.42361 4.375 9.52778V17.3542C4.375 22.7986 8.79861 27.2222 13.9028 27.2222H21.7292C27.1736 27.2222 31.5972 22.7986 31.5972 17.6944V9.52778C31.5972 4.42361 27.1736 0 22.0694 0ZM24.7917 17.6944C24.7917 19.0556 23.4306 20.4167 22.0694 20.4167H13.9028C12.5417 20.4167 11.1806 19.0556 11.1806 17.6944V9.52778C11.1806 8.16667 12.5417 6.80556 13.9028 6.80556H21.7292C23.4306 6.80556 24.7917 8.16667 24.7917 9.52778V17.6944Z" fill="#33308B"/>
<path d="M56.0972 0H48.2708C42.8264 0 38.4028 4.42361 38.4028 9.52778V17.3542C38.4028 22.7986 42.8264 26.8819 47.9306 26.8819H55.757C61.2014 26.8819 65.2847 22.4583 65.2847 17.3542V9.52778C65.625 4.42361 61.2014 0 56.0972 0ZM58.8195 17.6944C58.8195 19.0556 57.4583 20.4167 56.0972 20.4167H48.2708C46.5695 20.4167 45.2083 19.0556 45.2083 17.6944V9.52778C45.2083 8.16667 46.5695 6.80556 47.9306 6.80556H55.757C57.4583 6.80556 58.8195 8.16667 58.8195 9.52778V17.6944Z" fill="#33308B"/>
<path d="M56.0972 34.0278H48.2708C42.8264 34.0278 38.743 38.4514 38.743 43.5555V51.3819C38.743 56.8264 43.1667 60.9097 48.2708 60.9097H56.0972C61.5417 60.9097 65.625 56.4861 65.625 51.3819V43.5555C65.625 38.4514 61.2014 34.0278 56.0972 34.0278ZM58.8194 51.7222C58.8194 53.4236 57.4583 54.4444 56.0972 54.4444H48.2708C46.5694 54.4444 45.5486 53.0833 45.5486 51.7222V43.8958C45.5486 42.1944 46.9097 41.1736 48.2708 41.1736H56.0972C57.7986 41.1736 58.8194 42.5347 58.8194 43.8958V51.7222Z" fill="#33308B"/>
<path d="M22.0694 34.0278H13.9028C8.79861 34.0278 4.375 38.4514 4.375 43.5555V51.3819C4.375 56.8264 8.79861 61.25 13.9028 61.25H21.7292C27.1736 61.25 31.2569 56.8264 31.2569 51.7222V43.8958C31.5972 38.4514 27.1736 34.0278 22.0694 34.0278ZM24.7917 51.7222C24.7917 53.0833 23.4306 54.4444 22.0694 54.4444H13.9028C12.5417 54.4444 11.1806 53.0833 11.1806 51.7222V43.8958C11.1806 42.1944 12.5417 40.8333 13.9028 40.8333H21.7292C23.4306 40.8333 24.7917 42.1944 24.7917 43.5555V51.7222Z" fill="#33308B"/>
</svg>
